<svg width="256" height="256" viewBox="0 0 256 256" fill="none" xmlns="http://www.w3.org/2000/svg">
<rect x="33" y="29" width="190" height="190" rx="33" fill="#F7E2E2"/>
<path d="M73.3752 90V63.8182H90.7104V68.3821H78.9107V74.6207H89.5598V79.1847H78.9107V90H73.3752ZM99.9693 63.8182V90H94.4338V63.8182H99.9693ZM126.423 63.8182V90H121.642L110.251 73.5213H110.059V90H104.524V63.8182H109.382L120.683 80.2841H120.913V63.8182H126.423ZM136.532 63.8182V90H130.996V63.8182H136.532ZM140.089 68.3821V63.8182H161.592V68.3821H153.576V90H148.105V68.3821H140.089ZM165.133 90V63.8182H182.775V68.3821H170.669V74.6207H181.867V79.1847H170.669V85.4361H182.826V90H165.133Z" fill="#FF4141"/>
<path d="M91.8665 119.42C91.7756 118.504 91.3854 117.792 90.696 117.284C90.0066 116.777 89.071 116.523 87.8892 116.523C87.0862 116.523 86.4081 116.636 85.8551 116.864C85.3021 117.083 84.8778 117.39 84.5824 117.784C84.2945 118.178 84.1506 118.625 84.1506 119.125C84.1354 119.542 84.2225 119.905 84.4119 120.216C84.6089 120.527 84.8778 120.795 85.2188 121.023C85.5597 121.242 85.9536 121.436 86.4006 121.602C86.8475 121.761 87.3248 121.898 87.8324 122.011L89.9233 122.511C90.9384 122.739 91.8703 123.042 92.7188 123.42C93.5672 123.799 94.3021 124.265 94.9233 124.818C95.5445 125.371 96.0256 126.023 96.3665 126.773C96.715 127.523 96.893 128.383 96.9006 129.352C96.893 130.777 96.5294 132.011 95.8097 133.057C95.0975 134.095 94.0672 134.902 92.7188 135.477C91.3778 136.045 89.7604 136.33 87.8665 136.33C85.9877 136.33 84.3513 136.042 82.9574 135.466C81.571 134.89 80.4877 134.038 79.7074 132.909C78.9347 131.773 78.5294 130.367 78.4915 128.693H83.2528C83.3059 129.473 83.5294 130.125 83.9233 130.648C84.3248 131.163 84.8589 131.553 85.5256 131.818C86.1998 132.076 86.9612 132.205 87.8097 132.205C88.643 132.205 89.3665 132.083 89.9801 131.841C90.6013 131.598 91.0824 131.261 91.4233 130.83C91.7642 130.398 91.9347 129.902 91.9347 129.341C91.9347 128.818 91.7794 128.379 91.4688 128.023C91.1657 127.667 90.7188 127.364 90.1278 127.114C89.5445 126.864 88.8286 126.636 87.9801 126.432L85.446 125.795C83.4839 125.318 81.9347 124.572 80.7983 123.557C79.6619 122.542 79.0975 121.174 79.1051 119.455C79.0975 118.045 79.4725 116.814 80.2301 115.761C80.9953 114.708 82.0445 113.886 83.3778 113.295C84.7112 112.705 86.2263 112.409 87.9233 112.409C89.6506 112.409 91.1581 112.705 92.446 113.295C93.7415 113.886 94.7491 114.708 95.4688 115.761C96.1884 116.814 96.5597 118.034 96.5824 119.42H91.8665ZM99.3239 116.784V112.727H118.438V116.784H111.312V136H106.449V116.784H99.3239ZM122.753 136H117.48L125.514 112.727H131.855L139.878 136H134.605L128.776 118.045H128.594L122.753 136ZM122.423 126.852H134.878V130.693H122.423V126.852ZM138.949 116.784V112.727H158.062V116.784H150.938V136H146.074V116.784H138.949ZM161.21 136V112.727H176.892V116.784H166.131V122.33H176.085V126.386H166.131V131.943H176.938V136H161.21Z" fill="#FB5C2A"/>
<path d="M53.4446 151.727H59.5128L65.9219 167.364H66.1946L72.6037 151.727H78.6719V175H73.8991V159.852H73.706L67.6832 174.886H64.4332L58.4105 159.795H58.2173V175H53.4446V151.727ZM86.7372 175H81.4645L89.4986 151.727H95.8395L103.862 175H98.5895L92.7599 157.045H92.5781L86.7372 175ZM86.4077 165.852H98.8622V169.693H86.4077V165.852ZM126.104 159.875H121.126C121.036 159.231 120.85 158.659 120.57 158.159C120.289 157.652 119.929 157.22 119.49 156.864C119.051 156.508 118.543 156.235 117.967 156.045C117.399 155.856 116.782 155.761 116.115 155.761C114.911 155.761 113.861 156.061 112.967 156.659C112.073 157.25 111.38 158.114 110.888 159.25C110.395 160.379 110.149 161.75 110.149 163.364C110.149 165.023 110.395 166.417 110.888 167.545C111.388 168.674 112.085 169.527 112.979 170.102C113.873 170.678 114.907 170.966 116.081 170.966C116.74 170.966 117.35 170.879 117.911 170.705C118.479 170.53 118.982 170.277 119.422 169.943C119.861 169.602 120.225 169.189 120.513 168.705C120.808 168.22 121.013 167.667 121.126 167.045L126.104 167.068C125.975 168.136 125.653 169.167 125.138 170.159C124.63 171.144 123.945 172.027 123.081 172.807C122.225 173.58 121.202 174.193 120.013 174.648C118.831 175.095 117.494 175.318 116.001 175.318C113.926 175.318 112.07 174.848 110.433 173.909C108.804 172.97 107.517 171.61 106.57 169.83C105.63 168.049 105.161 165.894 105.161 163.364C105.161 160.826 105.638 158.667 106.592 156.886C107.547 155.106 108.842 153.75 110.479 152.818C112.115 151.879 113.956 151.409 116.001 151.409C117.35 151.409 118.6 151.598 119.751 151.977C120.911 152.356 121.937 152.909 122.831 153.636C123.725 154.356 124.452 155.239 125.013 156.284C125.581 157.33 125.945 158.527 126.104 159.875ZM129.632 175V151.727H134.553V161.33H144.541V151.727H149.45V175H144.541V165.386H134.553V175H129.632ZM158.428 151.727V175H153.507V151.727H158.428ZM181.942 151.727V175H177.692L167.567 160.352H167.396V175H162.476V151.727H166.794L176.839 166.364H177.044V151.727H181.942ZM186.007 175V151.727H201.689V155.784H190.928V161.33H200.882V165.386H190.928V170.943H201.734V175H186.007Z" fill="#FB5C2A"/>
</svg>
